USFL
nRows=105
nColumns=2
inDegrees=yes
endheader
time	soleus_r	
2.71976	 54.222589	
2.79133	 54.104136	
2.8629	 54.052779	
2.93448	 54.077443	
3.00605	 54.103299	
3.07762	 54.193268	
3.14919	 54.139081	
3.22077	 54.107879	
3.29234	 54.079327	
3.36391	 54.076419	
3.43548	 54.051569	
3.50706	 54.079732	
3.57863	 54.047079	
3.6502	 54.059860	
3.72177	 54.045675	
3.79335	 54.001939	
3.86492	 53.904046	
3.93649	 53.875064	
4.00806	 53.930047	
4.07964	 54.125521	
4.15121	 54.143348	
4.22278	 54.077162	
4.29435	 54.043551	
4.36593	 54.092134	
4.4375	 54.128064	
4.50907	 54.082357	
4.58065	 54.167639	
4.65222	 53.951002	
4.72379	 53.951401	
4.79536	 54.394808	
4.86694	 53.223777	
4.93851	 51.000935	
5.01008	 50.698930	
5.08165	 50.854424	
5.15323	 49.310002	
5.2248	 49.731086	
5.29637	 49.334578	
5.36794	 48.108439	
5.43952	 47.334082	
5.51109	 46.420037	
5.58266	 46.063579	
5.65423	 45.383819	
5.72581	 43.257557	
5.79738	 43.169538	
5.86895	 43.062444	
5.94052	 38.955272	
6.0121	 34.505905	
6.08367	 28.536105	
6.15524	 28.564189	
6.22681	 28.494905	
6.29839	 28.500424	
6.36996	 28.530684	
6.44153	 28.494549	
6.5131	 28.494314	
6.58468	 28.381421	
6.65625	 28.311723	
6.72782	 28.367196	
6.7994	 28.370276	
6.87097	 28.409626	
6.94254	 28.534326	
7.01411	 28.452482	
7.08569	 28.482982	
7.15726	 28.550878	
7.22883	 28.506373	
7.3004	 28.596960	
7.37198	 28.715938	
7.44355	 28.629174	
7.51512	 28.504354	
7.58669	 28.446326	
7.65827	 28.444442	
7.72984	 28.407975	
7.80141	 28.381173	
7.87298	 28.184864	
7.94456	 28.212651	
8.01613	 28.252877	
8.0877	 28.196286	
8.15927	 28.112916	
8.23085	 28.229345	
8.30242	 28.444680	
8.37399	 28.216803	
8.44556	 28.147504	
8.51714	 28.280500	
8.58871	 28.342086	
8.66028	 28.142241	
8.73185	 28.423342	
8.80343	 28.337951	
8.875	 28.140100	
8.94657	 28.295638	
9.01815	 28.172421	
9.08972	 28.181754	
9.16129	 28.182153	
9.23286	 28.278317	
9.30444	 28.367936	
9.37601	 28.235802	
9.44758	 28.065886	
9.51915	 27.989320	
9.59073	 27.839273	
9.6623	 27.809149	
9.73387	 27.797703	
9.80544	 27.811461	
9.87702	 27.919534	
9.94859	 27.913531	
10.0202	 27.598623	
10.0917	 33.215423	
10.1633	 40.506782	
